<svg width="432" height="48" viewBox="0 0 432 48" fill="none" xmlns="http://www.w3.org/2000/svg">
<path fill-rule="evenodd" clipRule="evenodd" d="M267.568 17C267.775 17.7195 268.055 18.3965 268.406 19.0312C269.26 20.5521 270.417 21.8854 271.875 23.0312C273.333 24.1562 274.99 25.1458 276.844 26C278.698 26.8333 280.625 27.5833 282.625 28.25C284.333 28.8125 285.708 29.3542 286.75 29.875C287.812 30.375 288.625 30.875 289.188 31.375C289.75 31.875 290.135 32.4167 290.344 33C290.552 33.5625 290.656 34.1979 290.656 34.9062C290.656 35.7188 290.458 36.4688 290.062 37.1562C289.667 37.8229 289.042 38.3646 288.188 38.7812C287.333 39.1771 286.208 39.375 284.812 39.375C283.521 39.375 282.375 39.2604 281.375 39.0312C280.375 38.7812 279.531 38.3854 278.844 37.8438C278.156 37.2812 277.635 36.5417 277.281 35.625C276.927 34.7083 276.75 33.5833 276.75 32.25H265.75C265.75 34.9375 266.292 37.2604 267.375 39.2188C268.479 41.1562 269.948 42.75 271.781 44C273.615 45.2292 275.656 46.1458 277.906 46.75C280.177 47.3333 282.479 47.625 284.812 47.625C287.354 47.625 289.656 47.3438 291.719 46.7812C293.781 46.2188 295.552 45.3958 297.031 44.3125C298.51 43.2083 299.646 41.8646 300.438 40.2812C301.229 38.6979 301.625 36.8854 301.625 34.8438C301.625 32.9271 301.281 31.2083 300.594 29.6875C299.927 28.1667 298.938 26.8125 297.625 25.625C296.333 24.4167 294.74 23.3438 292.844 22.4062C290.969 21.4479 288.823 20.5833 286.406 19.8125C285.115 19.3958 283.948 18.9688 282.906 18.5312C281.885 18.0938 281.01 17.6354 280.281 17.1562C280.205 17.1045 280.13 17.0524 280.057 17H267.568ZM285 9.17333C286.141 9.2374 287.11 9.48171 287.906 9.90625C288.844 10.4062 289.542 11.0938 290 11.9688C290.479 12.8438 290.719 13.8542 290.719 15H301.625C301.625 12.125 300.896 9.63542 299.438 7.53125C298 5.40625 296 3.77083 293.438 2.625C290.992 1.50228 288.179 0.919774 285 0.877483V9.17333ZM303.688 47L313.609 20H323.804L320.707 30.0312H330.497L327.392 20H337.586L347.562 47H335.75L333.119 38.5H318.093L315.469 47H303.688ZM177.984 20L168.062 47H179.844L182.468 38.5H197.494L200.125 47H211.938L201.961 20H191.767L194.872 30.0312H185.082L188.179 20H177.984ZM129.906 47V17H140.875V22.4688H147.812C149.208 22.4688 150.365 22.2188 151.281 21.7188C152.198 21.2188 152.885 20.5104 153.344 19.5938C153.823 18.6562 154.062 17.5417 154.062 16.25C154.062 14.9375 153.823 13.8125 153.344 12.875C152.865 11.9375 152.156 11.2188 151.219 10.7188C150.302 10.2188 149.167 9.96875 147.812 9.96875H146V1.5H147.812C151.312 1.5 154.354 2.02083 156.938 3.0625C159.521 4.10417 161.51 5.64583 162.906 7.6875C164.323 9.72917 165.031 12.25 165.031 15.25C165.031 17.8542 164.625 20.0312 163.812 21.7812C163 23.5312 161.865 24.9792 160.406 26.125C159.412 26.9032 158.303 27.5867 157.079 28.1755L166.562 46.5312V47H154.812L146.781 30.9375H140.875V47H129.906ZM1.81843 17C2.02531 17.7195 2.30459 18.3965 2.65625 19.0312C3.51042 20.5521 4.66667 21.8854 6.125 23.0312C7.58333 24.1562 9.23958 25.1458 11.0938 26C12.9479 26.8333 14.875 27.5833 16.875 28.25C18.5833 28.8125 19.9583 29.3542 21 29.875C22.0625 30.375 22.875 30.875 23.4375 31.375C24 31.875 24.3854 32.4167 24.5938 33C24.8021 33.5625 24.9062 34.1979 24.9062 34.9062C24.9062 34.9376 24.906 34.9688 24.9054 35H35.8742C35.8747 34.9481 35.875 34.896 35.875 34.8438C35.875 32.9271 35.5312 31.2083 34.8438 29.6875C34.1771 28.1667 33.1875 26.8125 31.875 25.625C30.5833 24.4167 28.9896 23.3438 27.0938 22.4062C25.2188 21.4479 23.0729 20.5833 20.6562 19.8125C19.3646 19.3958 18.1979 18.9688 17.1562 18.5312C16.1354 18.0938 15.2604 17.6354 14.5312 17.1562C14.4548 17.1045 14.3802 17.0524 14.3073 17H1.81843ZM18 9.17133C18.2031 9.16128 18.4114 9.15625 18.625 9.15625C20.0417 9.15625 21.2188 9.40625 22.1562 9.90625C23.0938 10.4062 23.7917 11.0938 24.25 11.9688C24.7292 12.8438 24.9688 13.8542 24.9688 15H35.875C35.875 12.125 35.1458 9.63542 33.6875 7.53125C32.25 5.40625 30.25 3.77083 27.6875 2.625C25.1458 1.45833 22.2083 0.875 18.875 0.875C18.5806 0.875 18.289 0.879119 18 0.887358V9.17133ZM40.25 23.3438C40.25 22.1902 40.3027 21.0757 40.408 20H51.5491C51.4538 21.0209 51.4062 22.1147 51.4062 23.2812V25.1875C51.4062 27.4167 51.5833 29.3958 51.9375 31.125C52.3125 32.8333 52.8646 34.2812 53.5938 35.4688C54.3438 36.6562 55.2604 37.5521 56.3438 38.1562C57.4479 38.7604 58.7292 39.0625 60.1875 39.0625C61.5833 39.0625 62.8229 38.7604 63.9062 38.1562C64.9896 37.5521 65.8958 36.6562 66.625 35.4688C67.375 34.2812 67.9375 32.8333 68.3125 31.125C68.7083 29.3958 68.9062 27.4167 68.9062 25.1875V23.2812C68.9062 21.0312 68.7083 19.0521 68.3125 17.3438C67.9375 15.6146 67.375 14.1667 66.625 13C65.875 11.8333 64.9479 10.9583 63.8438 10.375C62.9923 9.90018 62.0444 9.61194 61 9.51029V0.890899C63.5771 0.985375 65.9521 1.50091 68.125 2.4375C70.5625 3.45833 72.6667 4.94792 74.4375 6.90625C76.2083 8.84375 77.5833 11.1979 78.5625 13.9688C79.5417 16.7396 80.0312 19.8646 80.0312 23.3438V25.1875C80.0312 28.6667 79.5417 31.7917 78.5625 34.5625C77.6042 37.3125 76.2396 39.6667 74.4688 41.625C72.6979 43.5625 70.6042 45.0521 68.1875 46.0938C65.7708 47.1146 63.1042 47.625 60.1875 47.625C57.25 47.625 54.5625 47.1146 52.125 46.0938C49.7083 45.0521 47.6042 43.5625 45.8125 41.625C44.0417 39.6667 42.6667 37.3125 41.6875 34.5625C40.7292 31.7917 40.25 28.6667 40.25 25.1875V23.3438ZM19.0625 39.375C19.3899 39.375 19.7024 39.3641 20 39.3423V47.6119C19.6912 47.6206 19.3787 47.625 19.0625 47.625C16.7292 47.625 14.4271 47.3333 12.1562 46.75C9.90625 46.1458 7.86458 45.2292 6.03125 44C4.19792 42.75 2.72917 41.1562 1.625 39.2188C0.541667 37.2604 0 34.9375 0 32.25H11C11 33.5833 11.1771 34.7083 11.5312 35.625C11.8854 36.5417 12.4062 37.2812 13.0938 37.8438C13.7812 38.3854 14.625 38.7812 15.625 39.0312C16.625 39.2604 17.7708 39.375 19.0625 39.375ZM124.219 25.1875V23.3438C124.219 19.8646 123.729 16.7396 122.75 13.9688C121.771 11.1979 120.396 8.84375 118.625 6.90625C116.854 4.94792 114.75 3.45833 112.312 2.4375C109.896 1.39583 107.229 0.875 104.312 0.875C101.375 0.875 98.6875 1.39583 96.25 2.4375C93.8333 3.45833 91.7396 4.94792 89.9688 6.90625C88.2188 8.84375 86.8542 11.1979 85.875 13.9688C84.9167 16.7396 84.4375 19.8646 84.4375 23.3438V25.1875C84.4375 25.4756 84.4408 25.7612 84.4474 26.0444L95.6183 26.5918C95.6019 26.1353 95.5938 25.6672 95.5938 25.1875V23.2812C95.5938 21.0312 95.7708 19.0521 96.125 17.3438C96.5 15.6146 97.0521 14.1667 97.7812 13C98.5104 11.8333 99.4167 10.9583 100.5 10.375C101.583 9.77083 102.854 9.46875 104.312 9.46875C105.708 9.46875 106.948 9.77083 108.031 10.375C109.135 10.9583 110.062 11.8333 110.812 13C111.562 14.1667 112.125 15.6146 112.5 17.3438C112.896 19.0521 113.094 21.0312 113.094 23.2812V25.1875C113.094 27.4167 112.896 29.3958 112.5 31.125C112.125 32.8333 111.562 34.2812 110.812 35.4688C110.083 36.6562 109.177 37.5521 108.094 38.1562C107.01 38.7604 105.771 39.0625 104.375 39.0625C104.046 39.0625 103.725 39.0471 103.414 39.0163L102.994 47.5864C103.448 47.6121 103.908 47.625 104.375 47.625C107.292 47.625 109.958 47.1146 112.375 46.0938C114.792 45.0521 116.885 43.5625 118.656 41.625C120.427 39.6667 121.792 37.3125 122.75 34.5625C123.729 31.7917 124.219 28.6667 124.219 25.1875ZM233.375 32V32.7188C233.375 34.0729 233.188 35.2396 232.812 36.2188C232.438 37.1771 231.896 37.9167 231.188 38.4375C230.5 38.9375 229.656 39.1875 228.656 39.1875C227.635 39.1875 226.771 39.0208 226.062 38.6875C225.375 38.3333 224.854 37.7292 224.5 36.875C224.146 36 223.969 34.7917 223.969 33.25H212.969C212.969 36.5417 213.635 39.25 214.969 41.375C216.323 43.5 218.177 45.0729 220.531 46.0938C222.906 47.1146 225.615 47.625 228.656 47.625C231.594 47.625 234.24 47.0208 236.594 45.8125C238.969 44.5833 240.844 42.8542 242.219 40.625C243.615 38.3958 244.312 35.7604 244.312 32.7188V32H233.375ZM233.375 17H244.312V1.5H233.375V17ZM361.875 37H350.906V47H361.875V37ZM350.906 13H361.875V1.5H350.906V13ZM378 28H362V19.5625H378V1.5H388.938V47H378V28ZM431.562 1.5H420.594V18H431.562V1.5ZM420.594 31.2188V31H431.562V31.2188C431.562 34.7604 430.823 37.7604 429.344 40.2188C427.865 42.6562 425.792 44.5 423.125 45.75C420.458 47 417.323 47.625 413.719 47.625C410.156 47.625 407.021 47 404.312 45.75C401.625 44.5 399.521 42.6562 398 40.2188C396.5 37.7604 395.75 34.7604 395.75 31.2188V1.5H406.75V31.2188C406.75 33.0938 407.021 34.625 407.562 35.8125C408.104 36.9792 408.896 37.8333 409.938 38.375C410.979 38.9167 412.24 39.1875 413.719 39.1875C415.219 39.1875 416.479 38.9167 417.5 38.375C418.521 37.8333 419.292 36.9792 419.812 35.8125C420.333 34.625 420.594 33.0938 420.594 31.2188Z" fill="#86efac"/>
</svg>
