<svg width="273" height="281" viewBox="0 0 273 281" fill="none" xmlns="http://www.w3.org/2000/svg">
<circle cx="136.5" cy="132.5" r="124.5" stroke="black" stroke-width="2"/>
<circle cx="139" cy="134" r="87.0523" stroke="black" stroke-width="2.10456"/>
<path d="M87.4536 233.123L87.1054 233.857C86.349 235.687 86.072 237.282 86.2746 238.64C86.3824 239.322 86.649 239.747 87.0745 239.914C87.7964 240.197 88.3796 239.801 88.824 238.726C89.263 237.663 89.345 236.595 89.07 235.52C88.7897 234.458 88.2509 233.659 87.4536 233.123ZM85.0014 232.585L85.1522 232.22L85.1998 232.105C83.8623 231.789 82.1234 231.791 79.9832 232.111C79.1722 232.224 78.3788 232.404 77.6029 232.65L78.5154 230.442C81.3753 229.794 83.8914 229.688 86.0637 230.124C87.5002 227.192 89.9174 224.406 93.3153 221.768C97.0047 218.931 100.479 217.268 103.739 216.776C105.558 216.508 107.183 216.655 108.614 217.216C110.367 217.904 111.522 219.153 112.077 220.963C112.286 221.654 112.382 222.347 112.365 223.039C112.336 223.727 112.281 224.278 112.199 224.692C113.688 223.774 115.488 223.097 117.601 222.661C119.708 222.239 121.336 222.252 122.483 222.702C123.631 223.153 124.507 223.824 125.112 224.716C125.705 225.603 126.054 226.588 126.161 227.671C126.354 229.814 125.988 232.006 125.062 234.245C124.131 236.498 122.727 238.789 120.851 241.117C118.957 243.453 116.936 245.278 114.79 246.593C114.319 246.899 113.744 247.328 113.067 247.88C112.371 248.44 111.996 248.784 111.943 248.912C111.891 249.04 111.883 249.111 111.922 249.127C111.948 249.137 112.041 249.129 112.202 249.102L115.105 248.278C115.359 248.244 116.069 248.121 117.235 247.909C120.345 247.344 123.257 246.843 125.97 246.405L125.089 248.536C123.307 248.789 120.727 249.212 117.35 249.806C110.054 251.108 106.129 251.651 105.575 251.433C105.227 251.297 105.108 251.094 105.219 250.825C105.426 250.326 106.829 248.779 109.429 246.185C114.362 241.248 117.389 237.423 118.51 234.709C120.472 229.961 120.029 227.028 117.18 225.91C116.509 225.647 115.581 225.61 114.394 225.798C113.189 225.995 112.228 226.362 111.512 226.899C111.403 227.451 111.127 228.265 110.683 229.34C110.233 230.428 109.707 231.538 109.104 232.67C108.501 233.802 107.796 234.946 106.989 236.102C106.164 237.266 105.334 238.257 104.502 239.075C103.664 239.907 102.771 240.509 101.823 240.88C100.857 241.26 99.9549 241.285 99.1169 240.957C98.0597 240.542 97.8352 239.599 98.4436 238.127C99.2159 236.258 101.292 233.465 104.671 229.748C105.421 228.912 106.045 228.235 106.544 227.717L107.32 226.928C107.627 226.185 107.668 225.45 107.444 224.723C107.007 223.317 105.918 222.272 104.177 221.589C102.901 221.088 101.426 221.068 99.7528 221.527C98.0797 221.986 96.51 222.739 95.0438 223.785C93.5776 224.831 92.2473 226.02 91.0529 227.351C89.8402 228.69 88.9853 229.961 88.488 231.164C89.1882 231.573 89.7988 232.162 90.3197 232.931C90.8407 233.701 91.2149 234.391 91.4423 235.001C91.9907 236.465 91.9502 237.959 91.3207 239.482C90.8182 240.698 90.0353 241.722 88.9721 242.555C87.7786 243.485 86.4535 243.664 84.9966 243.092C82.5083 242.116 82.5099 238.614 85.0014 232.585Z" fill="black"/>
<path d="M81.4103 217.965C81.2891 216.271 80.6933 215.079 79.6228 214.388C78.9479 213.953 78.1442 213.904 77.2116 214.241C76.2674 214.571 75.5499 215.096 75.0593 215.818C74.5687 216.539 74.3813 217.111 74.497 217.531C74.5933 217.956 74.9032 218.337 75.4269 218.675C75.9388 219.006 76.4996 219.203 77.1092 219.267C77.7071 219.323 78.2799 219.281 78.8277 219.14C79.8922 218.855 80.7531 218.463 81.4103 217.965ZM73.3117 209.598L74.5966 207.708C77.8095 206.898 80.4975 206.441 82.6607 206.338C84.8238 206.235 86.5628 206.607 87.8777 207.456C90.5074 209.154 91.5757 211.054 91.0825 213.159C90.8752 213.98 90.4522 214.861 89.8137 215.8C88.6767 217.472 87.2393 218.835 85.5016 219.889C83.7561 220.954 81.8891 221.545 79.9007 221.662C77.8928 221.783 76.0744 221.318 74.4454 220.266C71.6993 218.494 71.0116 216.6 72.3822 214.584C73.2699 213.279 74.58 212.485 76.3125 212.202C78.0371 211.931 79.5685 212.227 80.9066 213.091C81.4419 213.437 81.8953 213.952 82.2668 214.637C82.6384 215.321 82.8175 216.104 82.8042 216.986C84.0054 216.278 84.9409 215.432 85.6106 214.447C87.4095 211.801 87.3316 209.847 85.3768 208.586C84.8648 208.255 84.0729 208.09 83.0011 208.09C81.9177 208.083 80.9118 208.159 79.9834 208.318C79.0356 208.48 77.8236 208.712 76.3475 209.011C74.8635 209.322 73.8516 209.518 73.3117 209.598Z" fill="black"/>
<path d="M49.0549 212.101C49.7783 212.747 51.411 212.394 53.9529 211.044C56.4846 209.685 60.1344 207.338 64.9025 204.003C63.3971 204.089 61.7912 204.372 60.0848 204.854C58.3689 205.345 56.8205 205.921 55.4397 206.582C52.522 207.968 50.6173 209.135 49.7257 210.084C48.8341 211.032 48.6105 211.705 49.0549 212.101ZM77.3475 197.1C77.7092 197.423 77.8719 197.735 77.8355 198.036C77.7991 198.338 77.7601 198.582 77.7187 198.767C77.6677 198.963 77.5633 199.185 77.4054 199.434C77.2476 199.683 77.113 199.897 77.0017 200.076C76.8801 200.246 76.7059 200.461 76.4791 200.723C76.2429 200.994 76.0631 201.196 75.9398 201.327L75.3849 201.917C73.5543 203.865 71.2554 205.775 68.4882 207.648C65.7106 209.511 62.954 211.06 60.2182 212.292C57.4721 213.516 54.8848 214.288 52.4564 214.607C50.028 214.927 48.2661 214.598 47.1707 213.621C46.499 213.021 46.1854 212.324 46.2298 211.529C46.2545 210.734 46.6842 209.893 47.5188 209.005C48.344 208.127 49.4131 207.263 50.726 206.412C52.0191 205.561 53.3142 204.871 54.6113 204.34C55.899 203.819 57.2142 203.359 58.557 202.962C59.8903 202.574 61.1287 202.288 62.2722 202.102C64.599 201.729 66.3182 201.537 67.4297 201.527L68.2027 201.493C70.2921 200.463 71.6924 199.569 72.4038 198.812C73.1057 198.065 73.2758 197.531 72.9141 197.208C72.6558 196.977 71.4262 196.901 69.2254 196.978C67.0247 197.056 64.9553 197.185 63.0173 197.367L64.6107 195.672C68.1429 195.391 70.8865 195.352 72.8415 195.557C74.7767 195.762 76.2787 196.276 77.3475 197.1Z" fill="black"/>
<path d="M47.6204 191.582C47.9398 191.338 48.272 191.276 48.617 191.396C50.3424 193.546 52.2882 194.709 54.4543 194.885C56.4936 195.037 58.2568 194.546 59.7438 193.413C61.2198 192.288 62.1427 191.071 62.5123 189.762C62.8733 188.443 62.6809 187.319 61.9353 186.39C61.1896 185.461 59.9743 184.943 58.2893 184.834C58.4219 186.039 58.2418 187.186 57.7492 188.275C57.2478 189.353 56.5621 190.224 55.6919 190.887C54.8107 191.559 53.8921 191.841 52.9362 191.734C51.9693 191.635 51.0913 191.095 50.3023 190.112C49.5133 189.129 49.2109 188.211 49.3951 187.357C49.5707 186.492 50.0495 185.761 50.8316 185.165C52.4398 183.94 54.2694 183.355 56.3204 183.41C56.2138 183.056 56.0825 182.782 55.9264 182.588C55.7703 182.393 55.5659 182.227 55.313 182.089C55.0405 181.949 54.6801 181.832 54.2321 181.738C53.773 181.653 53.3564 181.587 52.9824 181.541C52.6084 181.496 52.056 181.438 51.3253 181.368C50.5946 181.299 49.9887 181.229 49.5076 181.161L51.325 179.776C53.014 179.933 54.2877 180.138 55.1461 180.389C55.9959 180.629 56.6375 181.019 57.071 181.559C57.4959 182.088 57.809 182.633 58.0102 183.193C59.7133 183.235 61.3548 183.577 62.9348 184.218C64.495 184.857 65.7651 185.786 66.7448 187.007C68.1495 188.756 68.3083 190.646 67.2212 192.675C66.6121 193.818 65.7182 194.839 64.5396 195.737C61.863 197.777 59.008 198.456 55.9745 197.774C52.9324 197.081 50.1715 195.19 47.6917 192.102C47.5183 191.886 47.4945 191.712 47.6204 191.582ZM52.381 186.465C51.3677 187.237 51.2165 188.066 51.9274 188.952C52.6298 189.826 53.5151 189.857 54.5836 189.042C55.1454 188.614 55.6121 188.024 55.9838 187.27C56.3359 186.514 56.4844 185.749 56.4293 184.972C55.8924 185.033 55.2178 185.199 54.4055 185.47C53.5736 185.739 52.8987 186.07 52.381 186.465Z" fill="black"/>
<path d="M58.283 174.387C59.0465 175.784 59.1782 177.065 58.6781 178.229C58.1779 179.393 57.2762 180.313 55.973 180.989C54.6575 181.671 53.2186 182.113 51.6564 182.315C50.082 182.523 48.5257 182.519 46.9876 182.303C45.4306 182.081 43.9641 181.562 42.588 180.747C41.212 179.932 40.1687 178.875 39.4583 177.574C38.5155 175.848 38.3227 174.513 38.8799 173.569C39.0754 173.234 39.4067 172.945 39.8739 172.703C40.3288 172.467 40.8607 172.487 41.4696 172.764C42.0595 173.036 42.5436 173.518 42.9221 174.21C43.1279 174.587 42.927 175.144 42.3194 175.88C42.103 176.148 41.9482 176.486 41.8551 176.893C41.7552 177.288 41.8049 177.667 42.0041 178.032C42.3892 178.737 43.1506 179.192 44.2884 179.398C45.4261 179.603 46.663 179.586 47.9989 179.345C49.3282 179.093 50.54 178.683 51.6342 178.115C52.7162 177.554 53.489 176.904 53.9528 176.164C54.4042 175.431 54.4142 174.669 53.9826 173.879C52.8274 171.764 49.3869 169.813 43.6612 168.025L45.7267 166.954C50.7528 168.559 54.262 170.217 56.2543 171.929C57.1287 172.692 57.8049 173.511 58.283 174.387Z" fill="black"/>
<path d="M48.8508 145.965C49.0802 146.749 48.6077 147.304 47.4334 147.63C45.8721 148.064 43.9364 148.105 41.6264 147.755C39.2992 147.395 37.4617 147.402 36.1139 147.776C35.7536 147.876 35.4569 148.095 35.2238 148.433C34.9908 148.771 34.95 149.199 35.1017 149.717C35.2494 150.222 35.7999 150.724 36.7533 151.221C37.7066 151.718 38.7854 152.101 39.9895 152.37C41.1803 152.643 42.5093 152.871 43.9765 153.053C46.2898 153.316 48.4211 153.45 50.3704 153.455L51.49 157.283C49.7419 157.768 46.9269 157.961 43.0451 157.86C40.7328 157.798 39.3431 157.831 38.876 157.961C38.3956 158.094 38.0825 158.282 37.9368 158.524C37.7777 158.769 37.7254 158.985 37.7798 159.171C37.8342 159.357 37.9114 159.522 38.0115 159.667C38.6645 160.42 39.7026 161.059 41.1257 161.583C42.5316 162.098 44.0446 162.462 45.6647 162.673C48.6679 163.075 51.187 163.252 53.2219 163.205L54.3357 167.013C52.5831 167.385 49.76 167.673 45.8665 167.877C41.9556 168.072 39.3693 167.985 38.1073 167.617C37.6103 167.496 37.2268 167.171 36.9567 166.643C36.6695 166.104 36.3256 165.151 35.9252 163.782C36.9138 163.708 38.381 163.718 40.3269 163.81C42.2689 163.889 43.4642 163.931 43.9129 163.935C37.7193 162.392 34.1831 160.119 33.3046 157.115C33.1529 156.596 33.3338 156.129 33.8471 155.714C34.347 155.302 35.0574 154.968 35.9782 154.713C36.8856 154.461 38.6034 154.365 41.1314 154.424C39.0005 153.996 36.8744 153.213 34.7531 152.078C33.7058 151.506 32.7926 150.826 32.0134 150.036C31.2341 149.246 30.7201 148.426 30.4713 147.575C30.0359 146.086 30.8458 145.057 32.9008 144.486C34.7958 143.96 37.4295 143.789 40.802 143.974C41.7416 144.029 42.3515 144.018 42.6318 143.94C42.8987 143.866 43.0146 143.769 42.9796 143.65C42.9407 143.517 42.8666 143.387 42.7571 143.259C42.6342 143.135 42.4636 142.995 42.2452 142.841C42.0095 142.676 41.7757 142.518 41.5439 142.367C41.2988 142.219 40.9761 142.029 40.5759 141.795C40.1623 141.565 39.7985 141.357 39.4844 141.171C39.157 140.989 38.7262 140.749 38.192 140.452L36.8221 139.69L39.064 139.067C41.2714 140.251 43.4067 141.534 45.4701 142.915C47.5334 144.297 48.6604 145.314 48.8508 145.965Z" fill="black"/>
<path d="M37.3244 137.506C38.6075 136.369 39.2058 135.164 39.1195 133.893C39.0651 133.092 38.6242 132.426 37.797 131.897C36.9689 131.353 36.1195 131.11 35.2488 131.166C34.3781 131.222 33.8089 131.425 33.5412 131.776C33.2587 132.113 33.1386 132.593 33.1808 133.214C33.2221 133.822 33.3993 134.387 33.7123 134.908C34.0243 135.415 34.4004 135.842 34.8403 136.188C35.7046 136.854 36.5326 137.294 37.3244 137.506ZM39.1843 125.958L41.4647 125.811C44.0326 127.852 46.004 129.695 47.379 131.341C48.754 132.987 49.4946 134.591 49.6006 136.153C49.8127 139.275 48.9292 141.289 46.9502 142.194C46.1683 142.536 45.2107 142.743 44.0774 142.816C42.0595 142.946 40.1098 142.649 38.2282 141.924C36.3328 141.199 34.7443 140.087 33.4625 138.588C32.166 137.075 31.452 135.352 31.3206 133.418C31.0991 130.157 32.2046 128.448 34.6371 128.291C36.2126 128.189 37.631 128.736 38.8921 129.932C40.1394 131.128 40.817 132.521 40.9249 134.11C40.9681 134.745 40.8265 135.421 40.5003 136.136C40.1741 136.851 39.6542 137.474 38.9408 138.006C40.225 138.52 41.4614 138.738 42.65 138.662C45.8425 138.456 47.36 137.192 47.2023 134.871C47.161 134.263 46.8201 133.535 46.1796 132.689C45.5381 131.828 44.8765 131.079 44.1948 130.443C43.4983 129.794 42.5892 128.979 41.4674 127.996C40.3319 127.015 39.5709 126.335 39.1843 125.958Z" fill="black"/>
<path d="M34.83 104.451C34.7762 104.637 34.7301 104.797 34.6917 104.93C34.6571 105.05 34.6225 105.17 34.588 105.289C34.54 105.406 34.4998 105.495 34.4672 105.558C34.4347 105.621 34.3916 105.695 34.338 105.781C34.2882 105.853 34.2356 105.911 34.1802 105.953C34.1248 105.995 34.0627 106.036 33.9939 106.074C33.8601 106.138 33.7064 106.146 33.5328 106.099C33.3458 106.047 33.2275 106.008 33.1779 105.98C33.0597 105.89 33.0353 105.625 33.1048 105.185L33.4285 103.464C31.5253 102.268 30.3297 101.466 29.8417 101.06C29.3404 100.649 28.8953 100.269 28.5064 99.9184C28.1214 99.5544 27.8327 99.2312 27.6404 98.9488C27.4519 98.6531 27.253 98.3186 27.0437 97.9453C26.8343 97.572 26.7023 97.2056 26.6475 96.846C26.5192 95.9924 26.5702 95.1664 26.8007 94.368L26.9039 94.3101C26.9573 94.3248 27.4283 94.6405 28.3169 95.2573C31.2724 97.3021 33.3623 98.7004 34.5866 99.4523L36.0633 93.2878L36.6579 93.9246C37.1763 94.4256 36.9092 96.4991 35.8568 100.145C35.853 100.158 36.5347 100.568 37.9021 101.373C41.9776 103.782 44.4829 105.115 45.4179 105.371C46.3662 105.631 46.9446 105.675 47.1529 105.502C47.348 105.326 47.4781 105.124 47.5434 104.898C47.7508 104.18 46.4122 101.077 43.5276 95.5917L45.7916 96.2121C46.0751 96.778 46.4756 97.5626 46.9931 98.5659C47.5106 99.5692 47.9159 100.362 48.2089 100.945C48.4923 101.511 48.8147 102.217 49.176 103.062C49.5411 103.895 49.8014 104.591 49.957 105.15C50.3383 106.576 50.3944 107.754 50.1256 108.686C49.6685 110.269 48.3313 110.757 46.1141 110.149C44.8986 109.816 43.5231 109.238 41.9878 108.416C40.4429 107.576 39.1879 106.88 38.2229 106.329C37.2445 105.773 36.1135 105.148 34.83 104.451Z" fill="black"/>
<path d="M43.2744 79.4367C43.6396 79.604 43.844 79.8653 43.8878 80.2205C42.6895 82.7024 42.4919 84.927 43.2949 86.8944C44.0645 88.7398 45.2991 90.052 46.9988 90.831C48.6858 91.6042 50.2106 91.8538 51.5731 91.5795C52.9416 91.2929 53.8848 90.6132 54.4026 89.5406C54.9205 88.4681 54.8537 87.1732 54.2023 85.6561C53.159 86.3203 52.0291 86.6859 50.8128 86.753C49.6025 86.8075 48.5001 86.6069 47.5055 86.151C46.4983 85.6894 45.8307 85.0179 45.5028 84.1365C45.1624 83.2493 45.2661 82.2383 45.8141 81.1033C46.362 79.9684 47.0679 79.2866 47.9317 79.058C48.8015 78.8169 49.6834 78.9013 50.5773 79.3109C52.4154 80.1534 53.7658 81.4806 54.6285 83.2926C54.905 83.0385 55.0974 82.7992 55.2058 82.5747C55.3141 82.3502 55.3752 82.0964 55.3889 81.8132C55.396 81.5119 55.3426 81.1447 55.2288 80.7117C55.1023 80.273 54.9767 79.8803 54.8519 79.5337C54.7271 79.1871 54.5339 78.6797 54.2722 78.0114C54.0106 77.3431 53.8039 76.7839 53.6523 76.3336L55.7297 77.2857C56.3378 78.8286 56.7182 80.0311 56.871 80.8932C57.0297 81.7428 56.9585 82.4793 56.6574 83.1029C56.3624 83.7141 56.0033 84.2349 55.5801 84.6655C56.3 86.1682 56.7184 87.7537 56.8355 89.4219C56.9461 91.0719 56.6611 92.6016 55.9807 94.0109C55.0052 96.0314 53.3466 97.0304 51.0048 97.0081C49.6872 96.9983 48.3549 96.6846 47.0077 96.0672C43.9484 94.665 42.0552 92.4874 41.3283 89.5344C40.6074 86.5689 41.1081 83.3027 42.8302 79.7358C42.9507 79.4863 43.0987 79.3866 43.2744 79.4367ZM50.078 81.2526C48.9197 80.7218 48.0937 80.9677 47.5999 81.9904C47.1122 83.0006 47.4789 83.7856 48.7002 84.3453C49.3423 84.6396 50.0908 84.777 50.9459 84.7577C51.7943 84.7201 52.5615 84.5005 53.2474 84.099C52.9524 83.6591 52.5 83.1471 51.8902 82.563C51.2738 81.9606 50.6698 81.5238 50.078 81.2526Z" fill="black"/>
<path d="M58.0065 42.985C57.4751 44.0952 57.2386 45.2754 57.2971 46.5256C57.3556 47.7758 57.7228 48.758 58.3987 49.4722C59.0746 50.1864 59.8142 50.6758 60.6175 50.9406C61.4312 51.196 62.3089 51.338 63.2509 51.3665C64.1833 51.385 65.1764 51.3768 66.2301 51.3422C67.2742 51.2974 68.347 51.2829 69.4483 51.2985C70.5504 51.2948 71.6247 51.3626 72.6714 51.5017C75.0018 51.809 76.9238 52.7623 78.4374 54.3617C79.3608 55.3374 80.0111 56.4375 80.3884 57.6619C80.7561 58.8763 80.8657 60.0899 80.7173 61.3027C80.5792 62.5063 80.2567 63.7265 79.7499 64.9635C78.7585 67.3803 77.248 69.5003 75.2184 71.3237C74.0233 72.3973 72.6496 73.101 71.0974 73.4347C70.3363 73.5973 69.5727 73.576 68.8067 73.3708C68.0502 73.1757 67.3769 72.7663 66.7867 72.1427C66.1964 71.519 65.9582 70.7839 66.0719 69.9372C66.1857 69.0906 66.5889 68.3283 67.2815 67.6502L67.9174 67.023C68.3903 67.6033 68.8028 68.0795 69.155 68.4516C69.5073 68.8238 69.75 69.0803 69.8833 69.2212C70.0269 69.3527 70.2379 69.5354 70.5163 69.7692C70.805 69.9937 71.0374 70.1385 71.2134 70.2037C71.4093 70.2697 71.6603 70.3234 71.9663 70.3648C72.2819 70.4163 72.5808 70.3897 72.863 70.2851C73.6193 69.9965 74.3013 69.5792 74.9092 69.0331C75.517 68.487 76.0269 67.908 76.4389 67.2959C76.8509 66.6839 77.1907 66.0157 77.4583 65.2914C77.7259 64.5671 77.8944 63.8387 77.9638 63.1064C78.1192 61.4779 77.659 60.0953 76.5833 58.9587C75.5647 57.8824 73.9092 57.2107 71.6169 56.9436C70.4608 56.8097 68.7775 56.7028 66.567 56.6229C64.3572 56.5236 62.7433 56.4195 61.7252 56.3105C59.4424 56.0535 57.8298 55.4271 56.8873 54.4313C55.9449 53.4354 55.289 52.3497 54.9197 51.1739C54.5607 49.9889 54.4448 48.8089 54.5718 47.6339C54.6893 46.4489 54.971 45.256 55.4167 44.0553C56.3067 41.6924 57.6635 39.6918 59.487 38.0536C60.7233 36.9429 62.1672 36.2228 63.8185 35.8931C64.6597 35.7144 65.5358 35.7741 66.447 36.0722C67.3486 36.3603 68.1755 36.9016 68.9275 37.6963C69.1179 37.8975 68.7457 39.4881 67.8108 42.4683C66.876 45.4484 66.226 47.2793 65.8608 47.961L64.4472 46.4672C64.5152 46.2571 64.775 45.6051 65.2263 44.5109C66.2487 42.0664 66.5647 40.6379 66.1744 40.2255C64.2895 38.2338 62.2705 38.2051 60.1172 40.1395C59.2415 40.9263 58.5379 41.8747 58.0065 42.985Z" fill="black"/>
<path d="M87.8194 37.4313C88.0307 37.7729 88.0561 38.1032 87.8954 38.4224C85.519 39.8184 84.1193 41.5559 83.6963 43.635C83.3131 45.5944 83.6134 47.369 84.5972 48.9589C85.5738 50.537 86.7058 51.5902 87.9934 52.1185C89.2929 52.6398 90.4561 52.5988 91.4831 51.9955C92.5101 51.3922 93.1733 50.28 93.4727 48.6589C92.2346 48.6315 91.0901 48.3082 90.0394 47.689C89.0006 47.0627 88.1933 46.2844 87.6176 45.3541C87.0345 44.4119 86.8511 43.4839 87.0672 42.5702C87.276 41.6446 87.9237 40.8627 89.0104 40.2243C90.0971 39.586 91.0638 39.4115 91.9105 39.701C92.7691 39.9834 93.4571 40.5427 93.9746 41.3789C95.0386 43.0983 95.427 44.9496 95.14 46.9328C95.5114 46.8752 95.8046 46.7833 96.0195 46.657C96.2345 46.5307 96.4263 46.3539 96.5948 46.1264C96.7681 45.8801 96.9274 45.5456 97.0729 45.1229C97.2112 44.6884 97.3245 44.2927 97.4129 43.9356C97.5013 43.5786 97.622 43.0501 97.775 42.35C97.9279 41.6499 98.0662 41.0709 98.1899 40.6129L99.3923 42.5561C99.0425 44.1747 98.6919 45.3842 98.3406 46.1848C98.0012 46.9783 97.533 47.5504 96.9359 47.9011C96.3508 48.2448 95.7624 48.4781 95.1708 48.6008C94.9364 50.248 94.4049 51.7966 93.5763 53.2468C92.7524 54.6782 91.6658 55.7902 90.3164 56.5829C88.3819 57.7193 86.4451 57.6286 84.5061 56.3107C83.4137 55.5715 82.4776 54.5718 81.6978 53.3117C79.9269 50.4499 79.5582 47.5913 80.5919 44.736C81.6375 41.8737 83.8679 39.4394 87.2832 37.4332C87.522 37.2929 87.7008 37.2923 87.8194 37.4313ZM92.4806 42.7142C91.8101 41.6307 90.9853 41.3765 90.0061 41.9518C89.0388 42.52 88.9087 43.3752 89.6156 44.5176C89.9872 45.1182 90.5347 45.6477 91.2579 46.106C91.9858 46.5456 92.747 46.7889 93.5415 46.8361C93.5398 46.3072 93.447 45.631 93.2632 44.8077C93.084 43.9655 92.8231 43.2677 92.4806 42.7142Z" fill="black"/>
<path d="M106.563 30.5011C106.708 30.8759 106.672 31.2061 106.455 31.4916C103.866 32.437 102.172 33.896 101.373 35.8684C100.635 37.73 100.602 39.5333 101.274 41.2783C101.94 43.0103 102.856 44.2532 104.021 45.007C105.2 45.756 106.348 45.9262 107.467 45.5176C108.586 45.109 109.442 44.133 110.035 42.5895C108.825 42.3384 107.763 41.8125 106.846 41.0121C105.943 40.2068 105.295 39.2936 104.902 38.2725C104.504 37.2384 104.496 36.2907 104.876 35.4293C105.252 34.5549 106.032 33.9016 107.216 33.4692C108.4 33.0369 109.38 33.04 110.157 33.4785C110.947 33.9123 111.519 34.5881 111.872 35.5058C112.598 37.393 112.637 39.2878 111.989 41.1903C112.364 41.2008 112.669 41.1632 112.903 41.0777C113.137 40.9922 113.358 40.8526 113.565 40.6589C113.781 40.4476 113.999 40.1468 114.219 39.7566C114.435 39.3534 114.619 38.9839 114.772 38.648C114.925 38.3122 115.141 37.8131 115.42 37.1509C115.7 36.4887 115.942 35.9431 116.148 35.5141L116.969 37.6468C116.326 39.1787 115.759 40.3072 115.267 41.0325C114.787 41.7531 114.222 42.2322 113.572 42.4697C112.934 42.7025 112.314 42.8259 111.711 42.8397C111.177 44.4206 110.37 45.8506 109.289 47.1298C108.216 48.3913 106.945 49.2904 105.475 49.8273C103.368 50.597 101.485 50.157 99.8263 48.5071C98.8913 47.5808 98.1577 46.4261 97.6256 45.0431C96.4171 41.9021 96.5836 39.0182 98.1249 36.3914C99.6792 33.7598 102.317 31.7646 106.037 30.4058C106.297 30.3108 106.473 30.3425 106.563 30.5011ZM110.16 36.5513C109.702 35.3621 108.94 34.9623 107.873 35.3519C106.82 35.7367 106.534 36.5561 107.016 37.8099C107.27 38.4691 107.709 39.09 108.334 39.6726C108.967 40.2376 109.668 40.6152 110.439 40.8056C110.535 40.284 110.569 39.6008 110.541 38.7561C110.52 37.8937 110.394 37.1588 110.16 36.5513Z" fill="black"/>
<path d="M122.718 29.6654L125.123 28.9567C125.519 28.8886 125.734 28.95 125.768 29.1408C125.803 29.3315 125.526 30.4823 124.937 32.593C123.58 37.3793 122.984 40.2221 123.147 41.1215C123.149 41.1351 123.152 41.1908 123.156 41.2886C123.171 41.3703 123.183 41.4385 123.193 41.493C123.214 41.5315 123.239 41.5905 123.267 41.6699C123.296 41.7493 123.327 41.8071 123.362 41.8433C123.48 41.9495 123.627 41.9874 123.805 41.9569C124.159 41.8958 125.099 40.9052 126.623 38.9849C128.158 37.0487 129.179 35.5733 129.684 34.5589L130.099 36.8483C126.108 42.5514 123.266 45.5485 121.574 45.8396C120.973 45.9429 120.474 45.7546 120.078 45.2748C119.679 44.7813 119.432 44.2756 119.339 43.7578C119.245 43.2399 119.24 42.6295 119.323 41.9266C119.405 41.21 119.537 40.3863 119.72 39.4554C119.917 38.5222 120.101 37.6755 120.273 36.9152C120.445 36.1549 120.635 35.3354 120.841 34.4567C121.059 33.5621 121.183 33.0419 121.213 32.8963C120.578 33.8205 119.827 34.8419 118.96 35.9606C118.107 37.077 117.314 38.176 116.581 39.2576L116.166 36.9682L119.541 31.9402C117.802 31.8178 116.607 31.3627 115.958 30.5751C115.817 30.4167 115.734 30.2694 115.709 30.1331C115.536 29.1792 115.746 28.2789 116.339 27.4322C116.931 26.5855 117.828 26.0589 119.029 25.8523C119.643 25.7467 120.016 26.055 120.147 26.7772C120.223 27.1997 120.184 27.6842 120.03 28.2306C119.873 28.7635 119.64 29.1478 119.331 29.3837C120.06 29.8344 121.189 29.9283 122.718 29.6654Z" fill="black"/>
<path d="M134.855 44.6494C133.194 44.62 132.191 43.4318 131.848 41.0848C131.776 40.5157 131.746 39.9264 131.757 39.3172C131.786 37.8078 132.189 36.2913 132.966 34.7675C133.744 33.2438 134.753 31.8903 135.994 30.7072C137.25 29.5243 138.737 28.5672 140.454 27.8357C142.186 27.1045 143.945 26.7547 145.731 26.7863C146.604 26.8018 147.762 27.0508 149.208 27.5335C149.192 27.6302 149.041 28.2647 148.756 29.437C148.47 30.5955 148.184 31.7817 147.898 32.9956C147.114 36.3199 146.715 38.3837 146.699 39.1868C146.684 39.9899 146.884 40.3951 147.299 40.4025C148.213 40.4187 150.365 38.6976 153.756 35.2393L153.712 37.5656C151.565 39.7023 149.523 41.4461 147.586 42.797C145.662 44.1481 144.382 44.818 143.745 44.8067C142.693 44.7881 142.184 43.8718 142.219 42.0579C142.23 41.4625 142.298 40.7919 142.423 40.0461C141.401 41.3301 140.217 42.4242 138.87 43.3284C137.537 44.2328 136.198 44.6732 134.855 44.6494ZM136.204 38.2323C136.164 40.3093 136.823 41.3599 138.18 41.3839C138.761 41.3942 139.48 41.1022 140.337 40.5078C141.207 39.9138 141.995 39.2559 142.702 38.5343L145.286 28.3575C143.79 28.3311 142.333 28.8386 140.914 29.88C139.495 30.9215 138.362 32.2104 137.515 33.7468C136.669 35.2832 136.232 36.7784 136.204 38.2323Z" fill="black"/>
<path d="M150.457 45.0003L151.784 42.3984C152.427 40.815 153.331 38.7386 154.496 36.1693C155.661 33.6 156.379 32.1013 156.648 31.6733C156.932 31.248 157.148 30.9438 157.298 30.7608C157.464 30.5669 157.643 30.4108 157.837 30.2926C158.03 30.1743 158.197 30.0793 158.339 30.0076C158.483 29.9223 158.683 29.8758 158.939 29.8682C159.197 29.8469 159.392 29.8276 159.523 29.8102C159.667 29.7954 159.903 29.8123 160.233 29.8609C160.562 29.9095 160.795 29.9468 160.931 29.9727C160.931 29.9727 161.21 30.0259 161.767 30.1322C161.74 30.1975 161.511 30.6332 161.081 31.4394C160.667 32.2346 160.313 32.9073 160.019 33.4575C159.742 33.9967 159.358 34.7483 158.868 35.7123C158.38 36.6626 157.958 37.4986 157.602 38.2201C157.245 38.9416 156.883 39.6903 156.515 40.4662C155.78 42.0178 155.351 43.0992 155.228 43.7102C155.522 43.6534 156.614 43.0719 158.502 41.9656C160.391 40.8593 162.285 39.6553 164.185 38.3537L163.727 40.6349C162.22 41.6728 161.021 42.4736 160.131 43.0371C157.711 44.6062 155.659 45.6109 153.975 46.0513C153.841 46.3642 153.627 46.8662 153.333 47.5574C153.039 48.2485 152.846 48.684 152.753 48.8637C152.672 49.0596 152.523 49.412 152.308 49.9208C152.093 50.4296 151.949 50.7616 151.875 50.9168C151.799 51.0856 151.672 51.3645 151.495 51.7537C151.316 52.1565 151.17 52.4601 151.058 52.6644C150.957 52.8849 150.821 53.1761 150.65 53.5382C150.476 53.9138 150.299 54.2678 150.119 54.6001C149.953 54.935 149.764 55.3148 149.551 55.7396C148.919 56.9867 147.665 58.0658 145.787 58.9768C143.895 59.8853 142.14 60.1853 140.521 59.8768C140.072 59.7913 139.725 59.5842 139.481 59.2556C139.002 58.6146 138.899 57.6151 139.171 56.2573C139.425 54.9945 140.093 53.705 141.177 52.3888C142.257 51.0862 143.296 50.0294 144.292 49.2182C146.317 47.574 148.07 46.336 149.55 45.5044L150.457 45.0003ZM143.172 53.636C142.81 54.1733 142.515 54.695 142.286 55.2012C142.044 55.7049 141.898 56.0789 141.849 56.3233C141.8 56.5677 141.849 56.8872 141.996 57.2817C142.126 57.6872 142.409 57.9315 142.844 58.0144C143.266 58.0948 143.624 58.0713 143.918 57.944C144.209 57.8303 144.506 57.619 144.808 57.31C145.096 56.9984 145.374 56.6707 145.641 56.3268C145.891 55.9939 146.172 55.5468 146.482 54.9856C146.779 54.4219 147.04 53.9289 147.266 53.5067C147.478 53.082 147.73 52.5308 148.022 51.8532C148.31 51.1892 148.535 50.6681 148.696 50.2899C149.131 49.2451 149.522 48.2833 149.868 47.4047C146.302 50.2498 144.071 52.3269 143.172 53.636ZM163.14 24.7687C162.161 24.5821 161.769 23.9999 161.965 23.0223C162.099 22.3569 162.482 21.7531 163.113 21.2108C163.758 20.6711 164.427 20.4674 165.121 20.5996C165.829 20.7344 166.325 20.9699 166.611 21.3063C166.897 21.6427 166.983 22.0892 166.872 22.646C166.763 23.1891 166.318 23.7176 165.537 24.2313C164.769 24.7477 163.97 24.9268 163.14 24.7687Z" fill="black"/>
<path d="M185.517 57.495C185.009 57.426 184.469 57.3151 183.898 57.1622C183.339 57.0162 182.813 56.8017 182.321 56.5185C181.84 56.2423 181.359 55.9014 180.876 55.4959C180.405 55.0973 179.976 54.6429 179.589 54.1327C178.7 52.9822 178.607 51.8265 179.311 50.6658C179.591 50.2038 180.084 49.7769 180.791 49.385C181.498 48.993 182.192 48.6894 182.873 48.4742C183.566 48.2658 184.37 48.0337 185.286 47.7779C186.202 47.5221 186.838 47.3286 187.192 47.1973C187.349 46.2172 187.711 45.2594 188.278 44.3237C189.118 42.9379 190.243 42.0435 191.653 41.6406C193.07 41.2258 194.636 41.5122 196.353 42.4998C197.109 42.9349 197.362 43.3597 197.111 43.7743C196.666 44.5086 195.993 44.8966 195.094 44.9382C194.214 44.9749 193.407 44.7826 192.675 44.3613C192.344 45.8161 192.37 47.3088 192.754 48.8394C192.885 49.4256 193.014 49.9871 193.142 50.524C193.448 51.7546 193.429 52.6542 193.085 53.2227C192.554 54.0992 191.523 54.8642 189.994 55.5178L197.958 54.2773L196.774 56.2316C196.558 56.2671 196.011 56.3679 195.134 56.5339C194.268 56.7067 193.635 56.8297 193.234 56.9028C192.853 56.971 192.228 57.0669 191.36 57.1904C190.504 57.3208 189.821 57.4068 189.31 57.4484C188.818 57.485 188.192 57.5162 187.432 57.542C186.671 57.5678 186.033 57.5521 185.517 57.495ZM187.127 49.0285C186.966 49.0798 186.396 49.2068 185.415 49.4093C183.244 49.838 181.955 50.3899 181.546 51.065C181.144 51.7283 181.151 52.4912 181.567 53.3537C181.991 54.2043 182.605 54.861 183.409 55.3237C184.213 55.7864 184.941 56.029 185.591 56.0516C186.248 56.0623 186.702 55.8604 186.953 55.4459C187.205 55.0313 187.377 54.6272 187.47 54.2334C187.563 53.8396 187.597 53.396 187.572 52.9025C187.566 52.4041 187.542 51.9906 187.498 51.662C187.473 51.3284 187.409 50.8601 187.305 50.2571C187.208 49.6423 187.149 49.2328 187.127 49.0285Z" fill="black"/>
<path d="M193.927 64.0481C192.661 62.9718 192.66 61.4362 193.926 59.4413C194.242 58.9644 194.603 58.499 195.009 58.045C196.016 56.9203 197.317 56.0274 198.912 55.3664C200.508 54.7053 202.171 54.3206 203.904 54.2121C205.647 54.1127 207.421 54.3307 209.227 54.8664C211.044 55.411 212.633 56.2618 213.994 57.4187C214.659 57.9838 215.393 58.9074 216.196 60.1896C216.121 60.2529 215.591 60.6379 214.605 61.3445C213.628 62.0409 212.634 62.7578 211.62 63.4955C208.845 65.5158 207.19 66.8252 206.654 67.4237C206.118 68.0222 206.008 68.4559 206.325 68.725C207.021 69.3169 209.809 69.3787 214.688 68.9103L213.137 70.6438C210.082 70.9006 207.365 70.926 204.985 70.7202C202.615 70.5233 201.188 70.2186 200.702 69.806C199.9 69.1244 200.104 68.1077 201.314 66.756C201.712 66.3123 202.202 65.8478 202.785 65.3623C201.157 65.6865 199.527 65.7638 197.895 65.5941C196.273 65.4334 194.951 64.9181 193.927 64.0481ZM199.157 60.0438C197.771 61.5915 197.595 62.8049 198.629 63.6838C199.073 64.0605 199.819 64.2954 200.87 64.3885C201.93 64.4905 202.969 64.4923 203.987 64.3939L212.625 58.326C211.485 57.3574 210.026 56.8174 208.249 56.7061C206.472 56.5947 204.755 56.8523 203.098 57.4788C201.44 58.1053 200.127 58.9603 199.157 60.0438Z" fill="black"/>
<path d="M237.681 65.4747L218.516 72.9282C220.671 72.6043 222.794 72.7006 224.885 73.217C226.988 73.7252 228.525 74.6011 229.498 75.8447C230.334 76.9137 230.102 77.9312 228.801 78.8972C228.334 79.244 226.778 79.8389 224.133 80.6821C221.507 81.5279 219.789 82.2521 218.977 82.8548C218.643 83.1025 218.558 83.33 218.72 83.5373C218.831 83.6791 219.894 83.8811 221.91 84.1434C223.945 84.4083 225.322 84.6186 226.042 84.7743L224.174 86.1613C217.472 85.7056 213.707 84.9487 212.879 83.8906C212.333 83.1924 212.483 82.5296 213.328 81.9021C213.45 81.8113 213.678 81.6762 214.013 81.497C214.358 81.3094 215.179 80.9762 216.474 80.4973C220.167 79.1517 222.681 77.9835 224.015 76.9927C224.649 76.5221 224.723 75.9759 224.236 75.3541C223.486 74.3941 221.975 73.9122 219.704 73.9082C217.453 73.9068 215.45 74.2561 213.695 74.9559C211.959 75.6583 210.696 76.122 209.905 76.347C209.115 76.5721 208.433 76.6215 207.859 76.4953L205.863 73.9427C207.387 73.1043 213.575 70.5441 224.428 66.262L229.899 64.0879C232.268 63.1392 233.889 62.6944 234.761 62.7537C235.278 62.7843 235.719 62.9999 236.085 63.4006C236.451 63.8013 236.796 64.2089 237.12 64.6234C237.453 65.0488 237.64 65.3326 237.681 65.4747Z" fill="black"/>
<path d="M217.591 91.6002C216.873 90.1476 217.567 88.9271 219.673 87.9386C220.388 87.6032 221.126 87.3636 221.889 87.2196C225.104 86.6289 228.948 86.0942 233.422 85.6156C233.76 85.5181 234.414 86.4502 235.384 88.4118L235.706 89.0636C235.681 89.0753 234.734 89.2062 232.865 89.4562C227.258 90.2063 224.004 90.7931 223.101 91.2168C222.198 91.6404 221.952 92.2682 222.364 93.1C222.714 93.8076 223.453 94.5387 224.583 95.2933C225.719 96.0602 226.512 96.4453 226.962 96.4485L235.789 94.8068C236.989 94.5797 237.825 94.6462 238.297 95.0062C238.663 95.278 239.042 95.8112 239.435 96.6057L240.061 97.8721C233.527 98.9961 229.55 99.7154 228.13 100.03C227.128 100.378 226.533 100.596 226.345 100.684C226.157 100.772 226.038 100.859 225.987 100.944C225.955 101.036 225.988 101.181 226.086 101.379C226.399 102.012 229.441 103.338 235.212 105.356L233.105 106.345C232.682 106.176 231.939 105.89 230.874 105.487C229.823 105.079 229.02 104.767 228.466 104.553C227.925 104.333 227.222 104.02 226.357 103.615C225.499 103.223 224.825 102.874 224.334 102.569C223.061 101.774 222.246 101.017 221.89 100.297C221.362 99.2293 221.92 98.31 223.562 97.5392C224.252 97.2156 224.865 97.0041 225.403 96.9046C221.177 95.3547 218.573 93.5866 217.591 91.6002Z" fill="black"/>
<path d="M228.433 134.913C228.386 134.07 228.546 133.326 228.913 132.683C229.281 132.054 229.795 131.569 230.456 131.23C228.89 129.73 228.049 127.923 227.932 125.807C227.866 124.604 228.215 123.622 228.977 122.861C229.755 122.113 230.738 121.708 231.927 121.646C234.002 121.538 237.891 122.271 243.595 123.846C244.694 124.149 245.293 125.214 245.393 127.039L245.461 128.263C245.194 128.208 244.258 127.958 242.652 127.515C238.681 126.418 235.685 125.923 233.666 126.028C232.698 126.078 231.96 126.29 231.454 126.663C230.948 127.05 230.715 127.61 230.756 128.343C230.796 129.076 231.256 129.877 232.136 130.747L232.426 130.732C233.782 130.661 235.303 130.824 236.989 131.222C240.263 131.994 241.935 133.016 242.005 134.289C242.044 134.994 241.62 135.37 240.735 135.416C239.864 135.461 238.592 135.278 236.919 134.866C235.245 134.454 234.312 134.253 234.118 134.263C233.15 134.313 232.413 134.532 231.907 134.919C231.402 135.306 231.165 135.79 231.196 136.371C231.229 136.965 231.686 137.573 232.566 138.192C233.447 138.826 234.409 139.185 235.454 139.269C235.734 139.31 236.36 139.34 237.332 139.358C238.318 139.39 239.306 139.436 240.294 139.495C241.282 139.568 242.295 139.689 243.33 139.857C245.653 140.235 246.849 141.046 246.918 142.291C246.934 142.595 246.492 142.868 245.589 143.109C244.702 143.363 243.871 143.511 243.096 143.551C241.63 143.628 239.667 143.244 237.208 142.402L235.977 141.967C235.491 142.2 235.256 142.483 235.275 142.815C235.293 143.147 235.56 143.583 236.075 144.125C236.605 144.68 237.54 145.547 238.881 146.725L236.516 146.848C236.222 146.545 235.819 146.156 235.307 145.684C234.811 145.224 234.43 144.863 234.166 144.599C233.478 143.942 233.119 143.35 233.091 142.825C233.062 142.313 233.414 141.775 234.146 141.209C232.575 140.64 231.247 139.814 230.161 138.734C229.089 137.652 228.513 136.379 228.433 134.913Z" fill="black"/>
<path d="M239.195 149.292C237.7 150.15 236.861 151.209 236.679 152.47C236.564 153.265 236.857 154.004 237.556 154.687C238.253 155.384 239.034 155.791 239.898 155.909C240.762 156.028 241.362 155.942 241.698 155.653C242.045 155.379 242.264 154.933 242.353 154.317C242.44 153.713 242.384 153.126 242.187 152.554C241.988 151.995 241.709 151.503 241.351 151.076C240.644 150.253 239.925 149.658 239.195 149.292ZM234.952 160.222L232.688 159.912C230.601 157.404 229.057 155.208 228.056 153.323C227.054 151.439 226.665 149.722 226.889 148.173C227.336 145.075 228.623 143.28 230.751 142.789C231.588 142.61 232.569 142.598 233.695 142.752C235.698 143.026 237.545 143.706 239.235 144.79C240.94 145.876 242.262 147.28 243.203 149.002C244.156 150.74 244.494 152.569 244.217 154.488C243.75 157.723 242.309 159.175 239.894 158.844C238.33 158.63 237.056 157.813 236.071 156.392C235.101 154.973 234.729 153.475 234.957 151.899C235.048 151.268 235.328 150.636 235.797 150.001C236.266 149.366 236.906 148.86 237.716 148.482C236.566 147.723 235.402 147.263 234.221 147.101C231.052 146.667 229.301 147.602 228.969 149.905C228.882 150.508 229.063 151.287 229.513 152.244C229.961 153.214 230.452 154.078 230.986 154.836C231.532 155.609 232.251 156.588 233.144 157.773C234.05 158.96 234.653 159.776 234.952 160.222Z" fill="black"/>
<path d="M241.267 170.206C241.687 171.835 242.701 173.674 244.309 175.724C245.931 177.777 247.362 179 248.603 179.394C249.487 179.674 250.077 179.374 250.37 178.494C250.511 178.073 249.918 177.203 248.592 175.882C247.275 174.579 245.849 173.342 244.312 172.173C242.784 171.021 241.769 170.365 241.267 170.206ZM237.967 163.364C238.706 163.817 240.038 164.682 241.962 165.959C243.895 167.254 245.244 168.154 246.01 168.658C246.79 169.166 247.62 169.872 248.501 170.776C249.377 171.693 250.161 172.69 250.853 173.766C251.545 174.842 252.028 175.976 252.302 177.166C252.585 178.375 252.562 179.471 252.233 180.457C251.558 182.48 250.356 183.217 248.626 182.669C245.26 181.603 241.623 176.819 237.715 168.318C237.328 168.079 236.61 167.627 235.562 166.961C234.523 166.312 233.687 165.8 233.053 165.425C231.235 164.311 229.731 163.566 228.543 163.19C226.431 162.521 225.118 162.955 224.605 164.492C224.298 165.411 224.352 166.496 224.767 167.746C225.191 169.013 225.852 170.16 226.751 171.185C227.649 172.211 228.594 172.88 229.584 173.194C231.749 173.88 233.393 172.541 234.516 169.178C235.18 169.592 235.744 170.417 236.208 171.654C236.68 172.907 236.793 173.902 236.548 174.637C236.079 176.043 235.321 176.958 234.274 177.382C233.241 177.81 232.011 177.798 230.585 177.346C229.173 176.899 227.821 176.223 226.531 175.321C225.237 174.431 224.338 173.341 223.835 172.048C224.03 173.17 224.63 174.74 225.635 176.758C226.654 178.781 227.249 179.972 227.421 180.331L225.177 179.576C224.048 177.36 223.338 175.791 223.046 174.871C222.768 173.954 222.528 173.123 222.324 172.376C222.117 171.642 221.977 170.988 221.906 170.413C221.848 169.843 221.79 169.163 221.732 168.375C221.688 167.591 221.698 166.839 221.763 166.119C221.906 164.465 222.182 163.027 222.589 161.805C222.993 160.596 223.399 159.73 223.807 159.205C224.198 158.69 224.631 158.355 225.106 158.201C225.924 157.937 226.868 157.974 227.937 158.313C229.02 158.656 230.083 159.058 231.126 159.519C232.182 159.985 233.406 160.627 234.797 161.445C236.184 162.277 237.24 162.916 237.967 163.364Z" fill="black"/>
<path d="M216.466 177.834C216.519 177.331 216.615 176.796 216.751 176.227C216.882 175.671 217.083 175.144 217.355 174.646C217.621 174.159 217.952 173.668 218.349 173.172C218.74 172.689 219.189 172.243 219.695 171.835C220.838 170.899 222.011 170.743 223.216 171.368C223.696 171.617 224.147 172.077 224.569 172.748C224.991 173.419 225.323 174.082 225.564 174.738C225.799 175.406 226.062 176.181 226.352 177.065C226.643 177.949 226.86 178.561 227.006 178.901C228.009 179 228.996 179.301 229.967 179.805C231.406 180.551 232.353 181.604 232.809 182.963C233.278 184.329 233.038 185.882 232.088 187.62C231.67 188.385 231.246 188.657 230.815 188.433C230.053 188.038 229.636 187.401 229.564 186.521C229.498 185.66 229.668 184.859 230.073 184.118C228.58 183.874 227.061 183.984 225.515 184.445C224.923 184.606 224.355 184.764 223.813 184.919C222.57 185.289 221.653 185.32 221.063 185.014C220.153 184.542 219.341 183.575 218.625 182.112L220.149 189.851L218.12 188.799C218.077 188.589 217.956 188.059 217.759 187.208C217.554 186.369 217.408 185.755 217.321 185.366C217.239 184.996 217.121 184.389 216.967 183.545C216.806 182.713 216.696 182.048 216.637 181.549C216.584 181.069 216.531 180.457 216.48 179.713C216.429 178.969 216.424 178.343 216.466 177.834ZM225.139 178.939C225.081 178.785 224.934 178.232 224.695 177.282C224.188 175.178 223.584 173.945 222.883 173.581C222.194 173.224 221.418 173.274 220.553 173.73C219.701 174.193 219.052 174.831 218.608 175.646C218.163 176.46 217.939 177.187 217.938 177.825C217.948 178.47 218.169 178.904 218.599 179.127C219.029 179.35 219.446 179.497 219.85 179.566C220.254 179.635 220.707 179.644 221.209 179.592C221.716 179.558 222.136 179.511 222.47 179.45C222.808 179.407 223.283 179.318 223.894 179.182C224.517 179.053 224.932 178.972 225.139 178.939Z" fill="black"/>
<path d="M212.181 190.705C211.444 190.165 210.928 190.086 210.631 190.47C210.445 190.711 210.497 191.934 210.788 194.139C211.081 196.363 211.36 198.165 211.624 199.543L209.748 198.167C209.25 194.419 208.972 191.948 208.914 190.755C208.82 188.591 209.118 187.016 209.811 186.03C210.183 185.548 210.68 185.346 211.302 185.424C211.935 185.511 212.598 185.808 213.29 186.316C213.983 186.824 215.37 188.323 217.453 190.813C219.536 193.302 220.769 194.842 221.153 195.433C221.528 196.034 221.77 196.479 221.881 196.766C221.992 197.053 222.032 197.34 222.002 197.628C221.973 197.915 221.936 198.154 221.893 198.346C221.853 198.557 221.731 198.828 221.527 199.159C221.23 199.611 220.841 200.149 220.358 200.774C216.046 194.897 213.32 191.541 212.181 190.705ZM224.635 204.273C225.237 203.495 225.939 203.401 226.743 203.991C227.302 204.4 227.681 204.996 227.881 205.779C228.084 206.58 227.97 207.26 227.538 207.819C227.106 208.378 226.673 208.713 226.237 208.823C225.802 208.933 225.356 208.82 224.898 208.484C224.452 208.156 224.169 207.537 224.051 206.626C223.924 205.726 224.119 204.941 224.635 204.273Z" fill="black"/>
<path d="M211.628 207.538C211.768 207.404 211.887 207.288 211.987 207.193C212.077 207.106 212.167 207.02 212.257 206.933C212.357 206.857 212.437 206.799 212.496 206.761C212.556 206.723 212.631 206.68 212.72 206.632C212.8 206.594 212.875 206.571 212.944 206.561C213.014 206.552 213.088 206.548 213.167 206.549C213.316 206.559 213.455 206.628 213.583 206.755C213.721 206.891 213.804 206.983 213.834 207.032C213.892 207.168 213.781 207.408 213.501 207.754L212.361 209.08C213.428 211.05 214.073 212.33 214.297 212.921C214.531 213.522 214.731 214.07 214.896 214.564C215.051 215.067 215.142 215.488 215.169 215.827C215.187 216.175 215.194 216.562 215.191 216.987C215.188 217.412 215.121 217.793 214.989 218.131C214.676 218.931 214.22 219.618 213.62 220.194L213.501 220.193C213.462 220.154 213.208 219.65 212.738 218.68C211.174 215.46 210.045 213.224 209.349 211.972L204.986 216.566L204.784 215.724C204.581 215.036 205.847 213.378 208.584 210.749C208.594 210.739 208.202 210.05 207.409 208.682C205.047 204.596 203.522 202.212 202.832 201.531C202.133 200.84 201.649 200.517 201.381 200.564C201.123 200.62 200.909 200.729 200.739 200.893C200.199 201.411 199.823 204.747 199.611 210.902L197.941 209.252C197.975 208.624 198.016 207.75 198.064 206.629C198.112 205.508 198.153 204.624 198.187 203.977C198.221 203.349 198.291 202.581 198.397 201.673C198.493 200.775 198.612 200.046 198.755 199.487C199.132 198.068 199.67 197.024 200.369 196.352C201.558 195.21 202.97 195.448 204.605 197.064C205.501 197.95 206.416 199.126 207.347 200.592C208.279 202.077 209.029 203.296 209.598 204.247C210.176 205.208 210.853 206.305 211.628 207.538Z" fill="black"/>
<path d="M195 216.249C193.333 215.759 191.977 215.878 190.932 216.608C190.274 217.067 189.94 217.782 189.931 218.751C189.91 219.728 190.159 220.567 190.676 221.27C191.193 221.973 191.674 222.347 192.119 222.39C192.56 222.453 193.037 222.307 193.548 221.95C194.047 221.601 194.436 221.16 194.715 220.628C194.982 220.103 195.146 219.567 195.206 219.018C195.313 217.947 195.244 217.025 195 216.249ZM184.086 220.654L182.732 218.813C183.101 215.6 183.622 212.991 184.294 210.984C184.967 208.978 185.945 207.527 187.228 206.631C189.794 204.838 191.998 204.54 193.84 205.736C194.555 206.217 195.248 206.914 195.921 207.829C197.12 209.458 197.914 211.25 198.305 213.207C198.704 215.174 198.605 217.084 198.008 218.936C197.408 220.807 196.313 222.298 194.724 223.408C192.044 225.28 189.982 225.234 188.537 223.27C187.602 221.998 187.307 220.524 187.655 218.846C188.01 217.179 188.84 215.89 190.146 214.978C190.668 214.613 191.324 214.383 192.113 214.288C192.903 214.193 193.718 214.308 194.558 214.632C194.308 213.287 193.83 212.135 193.124 211.176C191.228 208.599 189.326 207.976 187.419 209.309C186.919 209.658 186.479 210.32 186.097 211.296C185.703 212.28 185.417 213.223 185.238 214.125C185.056 215.045 184.846 216.231 184.606 217.682C184.375 219.143 184.202 220.134 184.086 220.654Z" fill="black"/>
<path d="M175.595 216.227C175.325 215.681 175.358 214.932 175.692 213.981C176.033 213.042 176.542 212.415 177.22 212.098C178.374 211.559 179.19 211.774 179.667 212.743C180.003 213.426 180.07 214.205 179.868 215.079C179.671 215.966 179.222 216.573 178.519 216.901C177.804 217.235 177.21 217.345 176.736 217.23C176.25 217.121 175.87 216.787 175.595 216.227Z" fill="black"/>
</svg>
